HIERARCHY
ROOT Hips
{
	OFFSET 0.000000 97.167313 0.000000
	CHANNELS 6 Xposition Yposition Zposition Xrotation Yrotation Zrotation
	JOINT Spine
	{
		OFFSET 0.000000 13.784798 0.064400
		CHANNELS 3 Xrotation Yrotation Zrotation
		JOINT Spine1
		{
			OFFSET 0.000000 12.037903 0.404700
			CHANNELS 3 Xrotation Yrotation Zrotation
			JOINT Spine2
			{
				OFFSET 0.000000 17.795601 0.420200
				CHANNELS 3 Xrotation Yrotation Zrotation
				JOINT Neck
				{
					OFFSET 0.000000 39.131302 11.954600
					CHANNELS 3 Xrotation Yrotation Zrotation
					JOINT Head
					{
						OFFSET 0.000000 14.456192 15.627699
						CHANNELS 3 Xrotation Yrotation Zrotation
						JOINT HeadTop_End
						{
							OFFSET 0.000000 15.703506 7.603401
							CHANNELS 3 Xrotation Yrotation Zrotation
							End Site
							{
								OFFSET 0.000000 17.447403 0.000000
							}
						}
					}
				}
				JOINT LeftShoulder
				{
					OFFSET 17.399500 24.608795 1.168800
					CHANNELS 3 Xrotation Yrotation Zrotation
					JOINT LeftArm
					{
						OFFSET 18.980635 5.765305 1.818600
						CHANNELS 3 Xrotation Yrotation Zrotation
						JOINT LeftForeArm
						{
							OFFSET 49.290169 0.000000 0.000000
							CHANNELS 3 Xrotation Yrotation Zrotation
							JOINT LeftHand
							{
								OFFSET 31.562012 0.000000 0.000000
								CHANNELS 3 Xrotation Yrotation Zrotation
								JOINT LeftHandThumb1
								{
									OFFSET 6.133995 -4.388519 7.076070
									CHANNELS 3 Xrotation Yrotation Zrotation
									JOINT LeftHandThumb2
									{
										OFFSET 6.037666 -3.485840 3.485847
										CHANNELS 3 Xrotation Yrotation Zrotation
										JOINT LeftHandThumb3
										{
											OFFSET 6.496506 -3.750763 3.750761
											CHANNELS 3 Xrotation Yrotation Zrotation
											JOINT LeftHandThumb4
											{
												OFFSET 5.616882 -3.242905 3.242910
												CHANNELS 3 Xrotation Yrotation Zrotation
												End Site
												{
													OFFSET -1.254608 7.132141 0.375429
												}
											}
										}
									}
								}
								JOINT LeftHandPinky1
								{
									OFFSET 18.920792 -0.453171 -11.426712
									CHANNELS 3 Xrotation Yrotation Zrotation
									JOINT LeftHandPinky2
									{
										OFFSET 4.919586 0.000000 0.000000
										CHANNELS 3 Xrotation Yrotation Zrotation
										JOINT LeftHandPinky3
										{
											OFFSET 5.233047 0.000000 0.000000
											CHANNELS 3 Xrotation Yrotation Zrotation
											JOINT LeftHandPinky4
											{
												OFFSET 5.571716 0.000000 0.000000
												CHANNELS 3 Xrotation Yrotation Zrotation
												End Site
												{
													OFFSET -3.459808 4.342407 -0.466164
												}
											}
										}
									}
								}
								JOINT LeftHandRing1
								{
									OFFSET 22.726120 -0.094986 -6.500475
									CHANNELS 3 Xrotation Yrotation Zrotation
									JOINT LeftHandRing2
									{
										OFFSET 6.408615 0.000000 0.000000
										CHANNELS 3 Xrotation Yrotation Zrotation
										JOINT LeftHandRing3
										{
											OFFSET 6.150223 0.000000 0.000000
											CHANNELS 3 Xrotation Yrotation Zrotation
											JOINT LeftHandRing4
											{
												OFFSET 6.145386 0.000000 0.000000
												CHANNELS 3 Xrotation Yrotation Zrotation
												End Site
												{
													OFFSET -3.671402 4.923981 -0.202372
												}
											}
										}
									}
								}
								JOINT LeftHandMiddle1
								{
									OFFSET 23.373947 0.000000 0.000001
									CHANNELS 3 Xrotation Yrotation Zrotation
									JOINT LeftHandMiddle2
									{
										OFFSET 6.996567 0.000000 0.000000
										CHANNELS 3 Xrotation Yrotation Zrotation
										JOINT LeftHandMiddle3
										{
											OFFSET 7.015945 0.000000 0.000000
											CHANNELS 3 Xrotation Yrotation Zrotation
											JOINT LeftHandMiddle4
											{
												OFFSET 7.721573 0.000000 0.000000
												CHANNELS 3 Xrotation Yrotation Zrotation
												End Site
												{
													OFFSET -4.651108 6.158463 0.251582
												}
											}
										}
									}
								}
								JOINT LeftHandIndex1
								{
									OFFSET 21.310577 -0.490082 6.209344
									CHANNELS 3 Xrotation Yrotation Zrotation
									JOINT LeftHandIndex2
									{
										OFFSET 7.536453 0.000000 0.000000
										CHANNELS 3 Xrotation Yrotation Zrotation
										JOINT LeftHandIndex3
										{
											OFFSET 7.512344 0.000000 0.000000
											CHANNELS 3 Xrotation Yrotation Zrotation
											JOINT LeftHandIndex4
											{
												OFFSET 10.212402 0.000000 0.000001
												CHANNELS 3 Xrotation Yrotation Zrotation
												End Site
												{
													OFFSET -5.180801 8.690506 1.388433
												}
											}
										}
									}
								}
							}
						}
					}
				}
				JOINT RightShoulder
				{
					OFFSET -17.399500 24.608795 1.168800
					CHANNELS 3 Xrotation Yrotation Zrotation
					JOINT RightArm
					{
						OFFSET -18.980635 5.765305 1.818600
						CHANNELS 3 Xrotation Yrotation Zrotation
						JOINT RightForeArm
						{
							OFFSET -49.290169 0.000000 0.000000
							CHANNELS 3 Xrotation Yrotation Zrotation
							JOINT RightHand
							{
								OFFSET -31.562012 0.000000 0.000000
								CHANNELS 3 Xrotation Yrotation Zrotation
								JOINT RightHandThumb1
								{
									OFFSET -6.133995 -4.388519 7.076070
									CHANNELS 3 Xrotation Yrotation Zrotation
									JOINT RightHandThumb2
									{
										OFFSET -6.037666 -3.485840 3.485847
										CHANNELS 3 Xrotation Yrotation Zrotation
										JOINT RightHandThumb3
										{
											OFFSET -6.496506 -3.750763 3.750761
											CHANNELS 3 Xrotation Yrotation Zrotation
											JOINT RightHandThumb4
											{
												OFFSET -5.616882 -3.242905 3.242910
												CHANNELS 3 Xrotation Yrotation Zrotation
												End Site
												{
													OFFSET 1.254608 7.132141 0.375429
												}
											}
										}
									}
								}
								JOINT RightHandIndex1
								{
									OFFSET -21.310577 -0.490082 6.209344
									CHANNELS 3 Xrotation Yrotation Zrotation
									JOINT RightHandIndex2
									{
										OFFSET -7.536453 0.000000 0.000000
										CHANNELS 3 Xrotation Yrotation Zrotation
										JOINT RightHandIndex3
										{
											OFFSET -7.512344 0.000000 0.000000
											CHANNELS 3 Xrotation Yrotation Zrotation
											JOINT RightHandIndex4
											{
												OFFSET -10.212402 0.000000 0.000001
												CHANNELS 3 Xrotation Yrotation Zrotation
												End Site
												{
													OFFSET 5.180801 8.690506 1.388433
												}
											}
										}
									}
								}
								JOINT RightHandMiddle1
								{
									OFFSET -23.373947 0.000000 0.000001
									CHANNELS 3 Xrotation Yrotation Zrotation
									JOINT RightHandMiddle2
									{
										OFFSET -6.996567 0.000000 0.000000
										CHANNELS 3 Xrotation Yrotation Zrotation
										JOINT RightHandMiddle3
										{
											OFFSET -7.015945 0.000000 0.000000
											CHANNELS 3 Xrotation Yrotation Zrotation
											JOINT RightHandMiddle4
											{
												OFFSET -7.721573 0.000000 0.000000
												CHANNELS 3 Xrotation Yrotation Zrotation
												End Site
												{
													OFFSET 4.651108 6.158463 0.251582
												}
											}
										}
									}
								}
								JOINT RightHandRing1
								{
									OFFSET -22.726120 -0.094986 -6.500475
									CHANNELS 3 Xrotation Yrotation Zrotation
									JOINT RightHandRing2
									{
										OFFSET -6.408615 0.000000 0.000000
										CHANNELS 3 Xrotation Yrotation Zrotation
										JOINT RightHandRing3
										{
											OFFSET -6.150223 0.000000 0.000000
											CHANNELS 3 Xrotation Yrotation Zrotation
											JOINT RightHandRing4
											{
												OFFSET -6.145386 0.000000 0.000000
												CHANNELS 3 Xrotation Yrotation Zrotation
												End Site
												{
													OFFSET 3.671402 4.923981 -0.202372
												}
											}
										}
									}
								}
								JOINT RightHandPinky1
								{
									OFFSET -18.920792 -0.453171 -11.426712
									CHANNELS 3 Xrotation Yrotation Zrotation
									JOINT RightHandPinky2
									{
										OFFSET -4.919586 0.000000 0.000000
										CHANNELS 3 Xrotation Yrotation Zrotation
										JOINT RightHandPinky3
										{
											OFFSET -5.233047 0.000000 0.000000
											CHANNELS 3 Xrotation Yrotation Zrotation
											JOINT RightHandPinky4
											{
												OFFSET -5.571716 0.000000 0.000000
												CHANNELS 3 Xrotation Yrotation Zrotation
												End Site
												{
													OFFSET 3.459808 4.342407 -0.466164
												}
											}
										}
									}
								}
							}
						}
					}
				}
			}
		}
	}
	JOINT LeftUpLeg
	{
		OFFSET 19.899099 -7.885101 -3.429500
		CHANNELS 3 Xrotation Yrotation Zrotation
		JOINT LeftLeg
		{
			OFFSET 1.745560 -36.997807 10.304700
			CHANNELS 3 Xrotation Yrotation Zrotation
			JOINT LeftFoot
			{
				OFFSET -1.745558 -29.803308 -13.615400
				CHANNELS 3 Xrotation Yrotation Zrotation
				JOINT LeftToeBase
				{
					OFFSET 1.181900 -18.539904 15.226099
					CHANNELS 3 Xrotation Yrotation Zrotation
					JOINT LeftToe_End
					{
						OFFSET -0.863701 1.402801 16.534700
						CHANNELS 3 Xrotation Yrotation Zrotation
						End Site
						{
							OFFSET 0.000000 16.616566 0.000000
						}
					}
				}
			}
		}
	}
	JOINT RightUpLeg
	{
		OFFSET -19.899099 -7.885101 -3.429500
		CHANNELS 3 Xrotation Yrotation Zrotation
		JOINT RightLeg
		{
			OFFSET -1.745560 -36.997807 10.304700
			CHANNELS 3 Xrotation Yrotation Zrotation
			JOINT RightFoot
			{
				OFFSET 1.745558 -29.803308 -13.615400
				CHANNELS 3 Xrotation Yrotation Zrotation
				JOINT RightToeBase
				{
					OFFSET -1.181900 -18.539904 15.226099
					CHANNELS 3 Xrotation Yrotation Zrotation
					JOINT RightToe_End
					{
						OFFSET 0.863701 1.402801 16.534700
						CHANNELS 3 Xrotation Yrotation Zrotation
						End Site
						{
							OFFSET 0.000000 16.616566 0.000000
						}
					}
				}
			}
		}
	}
}
MOTION
Frames: 4
Frame Time: 0.033333
-1.868580 80.804626 2.019931 17.574941 -74.761379 13.151742 3.783334 -1.590212 -1.611541 7.568283 -3.212795 -2.329465 7.568637 -3.207070 -2.329516 -13.430935 29.216103 5.235898 15.155741 29.501356 -4.144450 -0.000000 0.000001 0.000001 5.834972 -16.904962 3.058527 -70.806652 -14.456642 -85.845793 38.967346 -34.337895 -11.075164 1.035317 -12.737621 26.444983 4.306751 -1.558798 -5.137241 15.732323 12.674821 8.828574 76.225164 -10.255415 -16.925531 0.000002 -0.000000 0.000000 -8.837219 8.274734 -56.386671 -0.020176 -0.050867 -45.639908 -0.004826 -0.034972 -29.526822 0.000000 -0.000001 -0.000002 -4.446734 3.923193 -59.141317 -1.091431 -0.672427 -59.020846 -0.104356 1.185564 -72.505880 -0.000004 -0.000001 -0.000000 -7.086259 1.132313 -51.618489 -0.063069 -4.895875 -71.831932 1.509535 0.538137 -67.243267 0.000000 0.000001 0.000009 -6.960788 -3.007051 -34.030086 0.003469 -4.389284 -57.820522 1.852076 0.687178 -69.585831 -0.000001 -0.000000 0.000003 4.229655 8.546584 -8.257258 -43.801074 2.008383 63.204665 37.580633 77.578368 -7.294475 -66.552209 38.471211 -24.457494 24.918347 -21.323372 30.343020 9.041937 8.262104 -18.001799 -16.109838 -19.128886 -12.401666 0.000001 0.000002 0.000001 -0.070704 -3.035196 61.424205 0.006485 4.395149 66.609193 1.919213 -0.429123 59.456653 -0.000001 -0.000003 -0.000002 -1.235396 -0.119476 68.274270 -0.077296 4.902847 84.501905 0.918971 -1.334263 32.710271 -0.000005 0.000003 -0.000008 0.883177 -4.613473 79.192943 -0.717774 1.136482 73.255773 -0.065397 -1.198589 39.144367 -0.000001 0.000002 -0.000001 -3.944547 0.100023 86.764754 -0.029803 0.060138 54.415154 -0.007567 0.030583 25.829825 0.000004 -0.000000 0.000002 -30.941392 20.398044 48.900357 27.974488 -4.057760 -4.305798 -0.716752 4.000111 -27.818109 -5.066213 -0.004730 0.932857 -0.000000 -0.000002 -0.000000 -29.019244 -5.375245 -10.007807 43.284753 18.718246 -6.659994 -20.439145 -1.809585 2.670981 -4.383799 -0.714967 9.117963 0.000001 0.000003 0.000000 
-1.693459 80.743050 2.060977 13.750746 -72.500621 9.930366 3.778141 -1.565530 -1.584915 7.480677 -3.156141 -2.310216 7.474319 -3.150968 -2.315607 -13.505467 29.150650 5.210311 15.570200 27.263149 -3.204204 -0.000001 -0.000001 -0.000000 5.797272 -16.883212 3.091784 -72.448260 -11.980312 -89.772243 39.625510 -28.615668 -9.461234 3.929705 -16.172445 23.715443 4.306753 -1.558800 -5.137249 15.732313 12.674820 8.828574 76.225164 -10.255416 -16.925530 0.000003 0.000002 -0.000002 -8.837218 8.274732 -56.386675 -0.020173 -0.050869 -45.639911 -0.004825 -0.034972 -29.526822 -0.000000 -0.000001 0.000001 -4.446733 3.923193 -59.141317 -1.091432 -0.672428 -59.020846 -0.104355 1.185564 -72.505880 -0.000001 0.000001 0.000005 -7.086260 1.132313 -51.618482 -0.063074 -4.895877 -71.831932 1.509534 0.538139 -67.243274 -0.000002 0.000001 0.000007 -6.960788 -3.007048 -34.030086 0.003467 -4.389287 -57.820522 1.852076 0.687178 -69.585824 -0.000001 0.000002 -0.000001 4.239809 8.584214 -8.293619 -42.644061 1.257849 61.635320 42.090890 78.888002 -11.981484 -66.531138 39.157348 -26.480360 24.918347 -21.323372 30.343020 9.041940 8.262105 -18.001795 -16.109834 -19.128886 -12.401667 0.000001 0.000001 0.000001 -0.070705 -3.035195 61.424212 0.006488 4.395157 66.609186 1.919207 -0.429123 59.456653 -0.000004 -0.000001 -0.000001 -1.235391 -0.119477 68.274270 -0.077294 4.902842 84.501898 0.918973 -1.334256 32.710268 0.000001 -0.000001 -0.000001 0.883177 -4.613474 79.192943 -0.717774 1.136487 73.255773 -0.065397 -1.198585 39.144361 -0.000004 0.000001 -0.000003 -3.944552 0.100020 86.764754 -0.029807 0.060135 54.415147 -0.007568 0.030587 25.829824 0.000001 0.000002 0.000001 -29.382326 17.121800 46.339695 28.141511 -3.055077 -4.136328 -0.129815 4.471232 -27.958626 -5.066207 -0.004765 0.932859 -0.000000 -0.000002 -0.000000 -28.433442 -8.107345 -11.992780 44.148768 19.443921 -6.477305 -21.513552 -1.522366 1.948381 -4.383793 -0.714954 9.117969 0.000000 0.000001 0.000000 
-1.428772 80.370224 2.110590 10.703735 -70.167968 7.495666 3.755201 -1.501347 -1.541891 7.243292 -2.994050 -2.256252 7.218882 -2.990522 -2.276685 -13.571879 28.964312 5.137053 16.192801 25.148270 -2.284364 0.000000 0.000000 -0.000000 5.690669 -16.810178 3.183767 -73.724529 -10.026027 -91.566889 40.625081 -28.025735 -8.396859 5.830175 -16.842369 21.477882 4.306752 -1.558797 -5.137247 15.732318 12.674825 8.828575 76.225157 -10.255413 -16.925531 0.000002 0.000001 -0.000002 -8.837221 8.274731 -56.386675 -0.020175 -0.050870 -45.639908 -0.004823 -0.034973 -29.526822 -0.000001 0.000002 0.000001 -4.446737 3.923192 -59.141317 -1.091434 -0.672430 -59.020846 -0.104356 1.185564 -72.505880 -0.000000 0.000002 0.000000 -7.086260 1.132312 -51.618482 -0.063071 -4.895874 -71.831932 1.509534 0.538139 -67.243260 -0.000002 0.000000 0.000009 -6.960791 -3.007051 -34.030086 0.003468 -4.389285 -57.820522 1.852082 0.687180 -69.585831 -0.000002 0.000005 -0.000003 4.268643 8.727481 -8.383988 -41.547627 0.846671 59.435657 58.738616 81.820387 -29.560181 -66.234154 39.737358 -30.368595 24.918344 -21.323374 30.343020 9.041940 8.262106 -18.001793 -16.109836 -19.128886 -12.401668 -0.000001 -0.000003 -0.000000 -0.070703 -3.035196 61.424219 0.006487 4.395152 66.609193 1.919212 -0.429126 59.456660 -0.000002 -0.000001 -0.000001 -1.235393 -0.119476 68.274264 -0.077296 4.902843 84.501905 0.918970 -1.334263 32.710264 -0.000001 0.000002 -0.000001 0.883177 -4.613473 79.192943 -0.717775 1.136486 73.255773 -0.065397 -1.198588 39.144357 -0.000003 0.000001 -0.000003 -3.944551 0.100020 86.764754 -0.029804 0.060132 54.415157 -0.007570 0.030580 25.829825 0.000002 -0.000001 -0.000003 -29.487593 14.586574 44.614249 29.028454 -2.955268 -3.962689 0.233458 4.259344 -27.637304 -5.066199 -0.004775 0.932864 -0.000000 -0.000002 -0.000001 -27.186033 -7.753093 -13.602720 45.093667 17.707856 -5.873279 -23.270487 -1.872618 2.599322 -4.383789 -0.714928 9.117964 0.000000 0.000001 0.000000 
-1.101642 79.793304 2.149338 8.210205 -67.783631 5.622108 3.717242 -1.399488 -1.483216 6.893575 -2.738061 -2.173180 6.842920 -2.737109 -2.216903 -13.528662 28.671840 5.021453 16.908507 23.130533 -1.468179 -0.000000 0.000000 -0.000001 5.396490 -17.529114 3.328509 -74.429616 -9.484901 -90.055095 41.991385 -33.866291 -7.822299 5.428468 -13.965783 19.620270 4.306746 -1.558798 -5.137241 15.732325 12.674825 8.828573 76.225164 -10.255412 -16.925533 0.000000 0.000001 -0.000001 -8.837222 8.274736 -56.386671 -0.020176 -0.050869 -45.639908 -0.004825 -0.034971 -29.526819 -0.000000 0.000002 -0.000002 -4.446736 3.923194 -59.141317 -1.091436 -0.672429 -59.020846 -0.104357 1.185562 -72.505880 -0.000002 0.000000 0.000003 -7.086264 1.132315 -51.618482 -0.063073 -4.895870 -71.831925 1.509532 0.538140 -67.243267 0.000001 0.000000 0.000004 -6.960792 -3.007049 -34.030086 0.003472 -4.389289 -57.820522 1.852076 0.687177 -69.585831 -0.000001 0.000001 -0.000001 4.318109 9.015360 -8.589034 -40.704376 0.865027 56.586041 105.232861 83.639252 -78.252774 -65.165161 39.548117 -36.113567 24.918349 -21.323374 30.343013 9.041936 8.262102 -18.001797 -16.109836 -19.128891 -12.401667 -0.000000 -0.000001 -0.000000 -0.070701 -3.035197 61.424212 0.006489 4.395152 66.609186 1.919207 -0.429131 59.456653 -0.000006 -0.000003 -0.000001 -1.235393 -0.119478 68.274264 -0.077295 4.902845 84.501898 0.918963 -1.334263 32.710268 0.000003 -0.000000 -0.000004 0.883180 -4.613470 79.192943 -0.717775 1.136483 73.255773 -0.065392 -1.198585 39.144364 -0.000001 0.000002 -0.000001 -3.944550 0.100025 86.764754 -0.029803 0.060138 54.415147 -0.007569 0.030584 25.829825 -0.000003 -0.000001 -0.000001 -29.866088 11.837907 42.931922 30.341309 -2.894270 -3.746661 0.476998 4.097088 -27.408057 -5.066208 -0.004798 0.932860 0.000000 0.000001 -0.000000 -25.630036 -6.260904 -15.125836 46.250776 15.130112 -4.957177 -25.311090 -2.486918 3.760795 -4.383793 -0.714916 9.117970 -0.000000 0.000002 0.000000 
